<svg id="visual" viewBox="0 0 960 450" width="960" height="450" xmlns="http://www.w3.org/2000/svg" xmlns:xlink="http://www.w3.org/1999/xlink" version="1.1"><g><g transform="translate(732 194)"><path d="M28.4 -18C35 -5 37.3 8.9 31.8 18.8C26.3 28.6 13.2 34.5 -1.4 35.3C-15.9 36.1 -31.9 31.8 -39.7 20.6C-47.5 9.4 -47.1 -8.8 -39.1 -22.6C-31.1 -36.3 -15.6 -45.7 -2.3 -44.4C10.9 -43 21.8 -31 28.4 -18Z" stroke="#40475F" fill="none" stroke-width="20"></path></g><g transform="translate(631 90)"><path d="M26.9 -17.7C32.6 -5.7 33.2 6.9 27.9 17.7C22.6 28.4 11.3 37.3 -2.1 38.5C-15.5 39.7 -31 33.3 -36.5 22.5C-41.9 11.6 -37.3 -3.6 -29.6 -16.8C-21.8 -30 -10.9 -41.2 -0.1 -41.1C10.6 -41 21.2 -29.7 26.9 -17.7Z" stroke="#40475F" fill="none" stroke-width="20"></path></g><g transform="translate(298 326)"><path d="M15.7 -9.3C19.2 -2.9 20.2 4.6 17.1 9.7C14.1 14.7 7.1 17.2 0.6 16.9C-5.9 16.6 -11.8 13.4 -15.5 7.9C-19.3 2.4 -21 -5.3 -18 -11.3C-15.1 -17.4 -7.6 -21.7 -0.7 -21.2C6.1 -20.8 12.1 -15.7 15.7 -9.3Z" stroke="#40475F" fill="none" stroke-width="20"></path></g><g transform="translate(848 151)"><path d="M22.8 -12.1C28.5 -3.1 31.6 8.4 27.4 15.9C23.1 23.4 11.6 26.8 0.8 26.3C-10 25.9 -19.9 21.6 -23.9 14.2C-27.9 6.9 -26 -3.5 -21 -12C-16 -20.5 -8 -27.2 0.2 -27.3C8.5 -27.4 17 -21.1 22.8 -12.1Z" stroke="#40475F" fill="none" stroke-width="20"></path></g><g transform="translate(545 203)"><path d="M24 -14.6C28.7 -5.7 28.5 5.3 23.7 14.1C18.8 22.9 9.4 29.5 -0.1 29.5C-9.6 29.6 -19.2 23.1 -23.9 14.4C-28.5 5.7 -28.2 -5.2 -23.4 -14.2C-18.6 -23.1 -9.3 -30.1 0.2 -30.2C9.7 -30.3 19.3 -23.5 24 -14.6Z" stroke="#40475F" fill="none" stroke-width="20"></path></g><g transform="translate(438 94)"><path d="M20.2 -10.5C25 -3.4 26.9 6.6 23 14.5C19.1 22.4 9.6 28.2 0.8 27.7C-7.9 27.2 -15.9 20.5 -19.4 12.8C-22.9 5.1 -21.9 -3.5 -18 -10.1C-14 -16.7 -7 -21.4 0.4 -21.6C7.7 -21.8 15.4 -17.6 20.2 -10.5Z" stroke="#40475F" fill="none" stroke-width="20"></path></g><g transform="translate(593 329)"><path d="M22.3 -12.5C26.2 -6 25 3.9 20.4 11.7C15.8 19.5 7.9 25.2 -0.7 25.6C-9.2 26 -18.5 21 -22 13.8C-25.5 6.6 -23.2 -2.7 -18.6 -9.6C-14 -16.4 -7 -20.7 1.1 -21.3C9.2 -21.9 18.3 -18.9 22.3 -12.5Z" stroke="#40475F" fill="none" stroke-width="20"></path></g><g transform="translate(729 379)"><path d="M26.8 -14.3C32.4 -5.8 33 6.8 27.7 14.8C22.4 22.9 11.2 26.3 1.8 25.3C-7.6 24.2 -15.2 18.7 -18.8 11.6C-22.4 4.6 -22.1 -4 -18.3 -11.5C-14.5 -19 -7.3 -25.3 1.7 -26.3C10.6 -27.3 21.2 -22.8 26.8 -14.3Z" stroke="#40475F" fill="none" stroke-width="20"></path></g><g transform="translate(890 372)"><path d="M16.1 -8C19.7 -3 20.7 4.8 17.6 9.6C14.5 14.5 7.2 16.5 0.4 16.2C-6.4 16 -12.9 13.6 -15.4 9.1C-17.9 4.5 -16.5 -2.1 -13.3 -6.8C-10.1 -11.5 -5 -14.4 0.6 -14.7C6.2 -15.1 12.5 -12.9 16.1 -8Z" stroke="#40475F" fill="none" stroke-width="20"></path></g><g transform="translate(78 358)"><path d="M15.7 -8.9C18.9 -3.5 19 3.8 15.9 9.3C12.8 14.9 6.4 18.7 0.4 18.4C-5.6 18.2 -11.2 13.9 -13.7 8.7C-16.3 3.5 -15.8 -2.6 -13 -7.7C-10.2 -12.8 -5.1 -16.8 0.6 -17.1C6.3 -17.5 12.5 -14.2 15.7 -8.9Z" stroke="#40475F" fill="none" stroke-width="20"></path></g><g transform="translate(339 186)"><path d="M30.6 -18.8C37.4 -5.9 39.1 8.9 33.2 20.5C27.2 32.2 13.6 40.9 1.2 40.2C-11.2 39.5 -22.4 29.4 -27.8 18C-33.3 6.6 -33 -6.1 -27.4 -18.3C-21.8 -30.6 -10.9 -42.3 0.5 -42.6C11.9 -42.8 23.8 -31.7 30.6 -18.8Z" stroke="#40475F" fill="none" stroke-width="20"></path></g><g transform="translate(152 124)"><path d="M33.6 -21.4C38.7 -10.5 34.8 3.7 27.7 13.4C20.6 23.2 10.3 28.6 0 28.5C-10.2 28.5 -20.5 23.1 -26.7 13.9C-33 4.6 -35.3 -8.5 -30.1 -19.5C-25 -30.5 -12.5 -39.3 0.9 -39.8C14.2 -40.3 28.4 -32.4 33.6 -21.4Z" stroke="#40475F" fill="none" stroke-width="20"></path></g><g transform="translate(421 293)"><path d="M18.4 -10.5C21.4 -5.4 19.7 2.5 15.8 9.3C12 16.2 6 22 -1.2 22.7C-8.5 23.4 -16.9 19.1 -20.9 12.1C-24.9 5.2 -24.3 -4.3 -20.1 -10.1C-15.9 -15.9 -7.9 -18 -0.1 -18C7.7 -17.9 15.4 -15.6 18.4 -10.5Z" stroke="#40475F" fill="none" stroke-width="20"></path></g><g transform="translate(171 247)"><path d="M34.1 -19C41.4 -7.1 42.4 9 35.7 18.6C29 28.3 14.5 31.5 1.3 30.7C-12 30 -23.9 25.3 -30.8 15.6C-37.6 5.9 -39.4 -9 -33.4 -20.1C-27.5 -31.2 -13.7 -38.5 -0.2 -38.4C13.4 -38.4 26.9 -30.8 34.1 -19Z" stroke="#40475F" fill="none" stroke-width="20"></path></g><g transform="translate(270 63)"><path d="M31.5 -16.6C37.6 -7.6 37.1 6.7 30.7 15.4C24.4 24.1 12.2 27.2 0.8 26.7C-10.6 26.3 -21.3 22.3 -25.7 14.7C-30.1 7.2 -28.4 -4.1 -23.1 -12.6C-17.7 -21.1 -8.9 -26.9 1.9 -28C12.7 -29.1 25.4 -25.6 31.5 -16.6Z" stroke="#40475F" fill="none" stroke-width="20"></path></g></g></svg>