<svg id="visual" viewBox="0 0 960 540" width="960" height="540" xmlns="http://www.w3.org/2000/svg" xmlns:xlink="http://www.w3.org/1999/xlink" version="1.1"><path d="M0 431L10 431.7C20 432.3 40 433.7 60 434C80 434.3 100 433.7 120 438C140 442.3 160 451.7 180 450.7C200 449.7 220 438.3 240 435.5C260 432.7 280 438.3 300 443.7C320 449 340 454 360 451.2C380 448.3 400 437.7 420 432.2C440 426.7 460 426.3 480 436.8C500 447.3 520 468.7 540 475.5C560 482.3 580 474.7 600 474.2C620 473.7 640 480.3 660 477.5C680 474.7 700 462.3 720 454C740 445.7 760 441.3 780 439.3C800 437.3 820 437.7 840 439.2C860 440.7 880 443.3 900 447.2C920 451 940 456 950 458.5L960 461L960 541L950 541C940 541 920 541 900 541C880 541 860 541 840 541C820 541 800 541 780 541C760 541 740 541 720 541C700 541 680 541 660 541C640 541 620 541 600 541C580 541 560 541 540 541C520 541 500 541 480 541C460 541 440 541 420 541C400 541 380 541 360 541C340 541 320 541 300 541C280 541 260 541 240 541C220 541 200 541 180 541C160 541 140 541 120 541C100 541 80 541 60 541C40 541 20 541 10 541L0 541Z" fill="#6D748B" stroke-linecap="round" stroke-linejoin="miter"></path></svg>