<svg id="visual" viewBox="0 0 900 600" width="900" height="600" xmlns="http://www.w3.org/2000/svg" xmlns:xlink="http://www.w3.org/1999/xlink" version="1.1"><path d="M0 507L15 512.7C30 518.3 60 529.7 90 529.2C120 528.7 150 516.3 180 513C210 509.7 240 515.3 270 520.7C300 526 330 531 360 525.3C390 519.7 420 503.3 450 500.5C480 497.7 510 508.3 540 509.8C570 511.3 600 503.7 630 501.2C660 498.7 690 501.3 720 508.7C750 516 780 528 810 531.3C840 534.7 870 529.3 885 526.7L900 524L900 601L885 601C870 601 840 601 810 601C780 601 750 601 720 601C690 601 660 601 630 601C600 601 570 601 540 601C510 601 480 601 450 601C420 601 390 601 360 601C330 601 300 601 270 601C240 601 210 601 180 601C150 601 120 601 90 601C60 601 30 601 15 601L0 601Z" fill="#6d748b"></path><path d="M0 530L15 528C30 526 60 522 90 523C120 524 150 530 180 529.2C210 528.3 240 520.7 270 517.3C300 514 330 515 360 517.5C390 520 420 524 450 523.7C480 523.3 510 518.7 540 516.7C570 514.7 600 515.3 630 522.7C660 530 690 544 720 544C750 544 780 530 810 527C840 524 870 532 885 536L900 540L900 601L885 601C870 601 840 601 810 601C780 601 750 601 720 601C690 601 660 601 630 601C600 601 570 601 540 601C510 601 480 601 450 601C420 601 390 601 360 601C330 601 300 601 270 601C240 601 210 601 180 601C150 601 120 601 90 601C60 601 30 601 15 601L0 601Z" fill="#535a73"></path><path d="M0 537L15 543.2C30 549.3 60 561.7 90 563.5C120 565.3 150 556.7 180 550C210 543.3 240 538.7 270 538.7C300 538.7 330 543.3 360 543.7C390 544 420 540 450 543.7C480 547.3 510 558.7 540 563.5C570 568.3 600 566.7 630 567.2C660 567.7 690 570.3 720 569.5C750 568.7 780 564.3 810 561.5C840 558.7 870 557.3 885 556.7L900 556L900 601L885 601C870 601 840 601 810 601C780 601 750 601 720 601C690 601 660 601 630 601C600 601 570 601 540 601C510 601 480 601 450 601C420 601 390 601 360 601C330 601 300 601 270 601C240 601 210 601 180 601C150 601 120 601 90 601C60 601 30 601 15 601L0 601Z" fill="#40475f"></path><path d="M0 592L15 589.8C30 587.7 60 583.3 90 579.7C120 576 150 573 180 571.5C210 570 240 570 270 567.8C300 565.7 330 561.3 360 562.2C390 563 420 569 450 572.5C480 576 510 577 540 579.7C570 582.3 600 586.7 630 587.8C660 589 690 587 720 583.5C750 580 780 575 810 570.5C840 566 870 562 885 560L900 558L900 601L885 601C870 601 840 601 810 601C780 601 750 601 720 601C690 601 660 601 630 601C600 601 570 601 540 601C510 601 480 601 450 601C420 601 390 601 360 601C330 601 300 601 270 601C240 601 210 601 180 601C150 601 120 601 90 601C60 601 30 601 15 601L0 601Z" fill="#343a4c"></path></svg>