<svg id="visual" viewBox="0 0 960 540" width="960" height="540" xmlns="http://www.w3.org/2000/svg" xmlns:xlink="http://www.w3.org/1999/xlink" version="1.1"><path d="M0 158L11.5 151.5C23 145 46 132 68.8 129.2C91.7 126.3 114.3 133.7 137.2 142.3C160 151 183 161 205.8 153.3C228.7 145.7 251.3 120.3 274.2 116.5C297 112.7 320 130.3 342.8 133.2C365.7 136 388.3 124 411.2 123.3C434 122.7 457 133.3 480 137.2C503 141 526 138 548.8 139.3C571.7 140.7 594.3 146.3 617.2 133.3C640 120.3 663 88.7 685.8 78.5C708.7 68.3 731.3 79.7 754.2 87.3C777 95 800 99 822.8 95.2C845.7 91.3 868.3 79.7 891.2 85C914 90.3 937 112.7 948.5 123.8L960 135L960 0L948.5 0C937 0 914 0 891.2 0C868.3 0 845.7 0 822.8 0C800 0 777 0 754.2 0C731.3 0 708.7 0 685.8 0C663 0 640 0 617.2 0C594.3 0 571.7 0 548.8 0C526 0 503 0 480 0C457 0 434 0 411.2 0C388.3 0 365.7 0 342.8 0C320 0 297 0 274.2 0C251.3 0 228.7 0 205.8 0C183 0 160 0 137.2 0C114.3 0 91.7 0 68.8 0C46 0 23 0 11.5 0L0 0Z" fill="#6D748B" stroke-linecap="round" stroke-linejoin="miter"></path></svg>