<svg id="visual" viewBox="0 0 960 540" width="960" height="540" xmlns="http://www.w3.org/2000/svg" xmlns:xlink="http://www.w3.org/1999/xlink" version="1.1"><rect x="0" y="0" width="960" height="540" fill="#40454d"></rect><path d="M0 517L5.2 516C10.3 515 20.7 513 31 512.3C41.3 511.7 51.7 512.3 62 512.7C72.3 513 82.7 513 93 513.5C103.3 514 113.7 515 124 514.8C134.3 514.7 144.7 513.3 155 513C165.3 512.7 175.7 513.3 186 513.7C196.3 514 206.7 514 217 513C227.3 512 237.7 510 248 508.8C258.3 507.7 268.7 507.3 279 508.7C289.3 510 299.7 513 310 513.3C320.3 513.7 330.7 511.3 341 510.8C351.3 510.3 361.7 511.7 372 512.8C382.3 514 392.7 515 403 515.5C413.3 516 423.7 516 434 515.5C444.3 515 454.7 514 464.8 514C475 514 485 515 495.2 514.7C505.3 514.3 515.7 512.7 526 512C536.3 511.3 546.7 511.7 557 512.3C567.3 513 577.7 514 588 514.3C598.3 514.7 608.7 514.3 619 513.7C629.3 513 639.7 512 650 510.8C660.3 509.7 670.7 508.3 681 508C691.3 507.7 701.7 508.3 712 509.5C722.3 510.7 732.7 512.3 743 513C753.3 513.7 763.7 513.3 774 512.3C784.3 511.3 794.7 509.7 805 508.7C815.3 507.7 825.7 507.3 836 508.3C846.3 509.3 856.7 511.7 867 513.3C877.3 515 887.7 516 898 516.2C908.3 516.3 918.7 515.7 929 515.3C939.3 515 949.7 515 954.8 515L960 515L960 541L954.8 541C949.7 541 939.3 541 929 541C918.7 541 908.3 541 898 541C887.7 541 877.3 541 867 541C856.7 541 846.3 541 836 541C825.7 541 815.3 541 805 541C794.7 541 784.3 541 774 541C763.7 541 753.3 541 743 541C732.7 541 722.3 541 712 541C701.7 541 691.3 541 681 541C670.7 541 660.3 541 650 541C639.7 541 629.3 541 619 541C608.7 541 598.3 541 588 541C577.7 541 567.3 541 557 541C546.7 541 536.3 541 526 541C515.7 541 505.3 541 495.2 541C485 541 475 541 464.8 541C454.7 541 444.3 541 434 541C423.7 541 413.3 541 403 541C392.7 541 382.3 541 372 541C361.7 541 351.3 541 341 541C330.7 541 320.3 541 310 541C299.7 541 289.3 541 279 541C268.7 541 258.3 541 248 541C237.7 541 227.3 541 217 541C206.7 541 196.3 541 186 541C175.7 541 165.3 541 155 541C144.7 541 134.3 541 124 541C113.7 541 103.3 541 93 541C82.7 541 72.3 541 62 541C51.7 541 41.3 541 31 541C20.7 541 10.3 541 5.2 541L0 541Z" fill="#1B262C" stroke-linecap="round" stroke-linejoin="miter"></path></svg>